<?xml version="1.0" encoding="UTF-8" standalone="no"?>
<!DOCTYPE svg PUBLIC "-//W3C//DTD SVG 1.1//EN"
 "http://www.w3.org/Graphics/SVG/1.1/DTD/svg11.dtd">
<!-- Generated by graphviz version 2.43.0 (0)
 -->
<!-- Title: graphname Pages: 1 -->
<svg width="1416pt" height="828pt"
 viewBox="0.00 0.00 1416.00 828.00" xmlns="http://www.w3.org/2000/svg" xmlns:xlink="http://www.w3.org/1999/xlink">
<g id="graph0" class="graph" transform="scale(1 1) rotate(0) translate(4 824)">
<title>graphname</title>
<polygon fill="white" stroke="transparent" points="-4,4 -4,-824 1412,-824 1412,4 -4,4"/>
<g id="clust2" class="cluster">
<title>cluster_1</title>
<polygon fill="none" stroke="black" points="8,-8 8,-812 1400,-812 1400,-8 8,-8"/>
<text text-anchor="middle" x="704" y="-796.8" font-family="Times,serif" font-size="14.00">server</text>
</g>
<g id="clust3" class="cluster">
<title>cluster_2</title>
<polygon fill="none" stroke="black" points="48,-16 48,-736 1274,-736 1274,-16 48,-16"/>
<text text-anchor="middle" x="661" y="-720.8" font-family="Times,serif" font-size="14.00">src</text>
</g>
<g id="clust4" class="cluster">
<title>cluster_3</title>
<polygon fill="none" stroke="black" points="120,-24 120,-537 623,-537 623,-24 120,-24"/>
<text text-anchor="middle" x="371.5" y="-521.8" font-family="Times,serif" font-size="14.00">Classes</text>
</g>
<g id="clust5" class="cluster">
<title>cluster_4</title>
<polygon fill="none" stroke="black" points="128,-357 128,-506 439,-506 439,-357 128,-357"/>
<text text-anchor="middle" x="283.5" y="-490.8" font-family="Times,serif" font-size="14.00">Browser</text>
</g>
<g id="clust6" class="cluster">
<title>cluster_5</title>
<polygon fill="none" stroke="black" points="168,-32 168,-108 591,-108 591,-32 168,-32"/>
<text text-anchor="middle" x="379.5" y="-92.8" font-family="Times,serif" font-size="14.00">Error</text>
</g>
<g id="clust7" class="cluster">
<title>cluster_6</title>
<polygon fill="none" stroke="black" points="296,-116 296,-349 426,-349 426,-116 296,-116"/>
<text text-anchor="middle" x="361" y="-333.8" font-family="Times,serif" font-size="14.00">Image</text>
</g>
<g id="clust8" class="cluster">
<title>cluster_7</title>
<polygon fill="none" stroke="black" points="459,-116 459,-506 615,-506 615,-116 459,-116"/>
<text text-anchor="middle" x="537" y="-490.8" font-family="Times,serif" font-size="14.00">Server</text>
</g>
<g id="clust9" class="cluster">
<title>cluster_8</title>
<polygon fill="none" stroke="black" points="128,-116 128,-265 250,-265 250,-116 128,-116"/>
<text text-anchor="middle" x="189" y="-249.8" font-family="Times,serif" font-size="14.00">Validation</text>
</g>
<g id="clust10" class="cluster">
<title>cluster_9</title>
<polygon fill="none" stroke="black" points="631,-273 631,-349 1266,-349 1266,-273 631,-273"/>
<text text-anchor="middle" x="948.5" y="-333.8" font-family="Times,serif" font-size="14.00">Middlewares</text>
</g>
<g id="clust11" class="cluster">
<title>cluster_10</title>
<polygon fill="none" stroke="black" points="157,-545 157,-621 351,-621 351,-545 157,-545"/>
<text text-anchor="middle" x="254" y="-605.8" font-family="Times,serif" font-size="14.00">controllers</text>
</g>
<g id="clust12" class="cluster">
<title>cluster_11</title>
<polygon fill="none" stroke="black" points="901,-32 901,-108 995,-108 995,-32 901,-32"/>
<text text-anchor="middle" x="948" y="-92.8" font-family="Times,serif" font-size="14.00">other</text>
</g>
<g id="clust13" class="cluster">
<title>cluster_12</title>
<polygon fill="none" stroke="black" points="315,-629 315,-705 409,-705 409,-629 315,-629"/>
<text text-anchor="middle" x="362" y="-689.8" font-family="Times,serif" font-size="14.00">routes</text>
</g>
<g id="clust14" class="cluster">
<title>cluster_13</title>
<polygon fill="none" stroke="black" points="1282,-189 1282,-265 1380,-265 1380,-189 1282,-189"/>
<text text-anchor="middle" x="1331" y="-249.8" font-family="Times,serif" font-size="14.00">types</text>
</g>
<!-- server/index.ts -->
<g id="node1" class="node">
<title>server/index.ts</title>
<polygon fill="orange" stroke="black" points="207,-744.5 207,-780.5 281,-780.5 281,-744.5 207,-744.5"/>
<text text-anchor="middle" x="244" y="-758.8" font-family="Times,serif" font-size="14.00">index.ts</text>
</g>
<!-- server/src/Classes/Browser/Browser.ts -->
<g id="node2" class="node">
<title>server/src/Classes/Browser/Browser.ts</title>
<polygon fill="none" stroke="black" points="261.5,-438.5 261.5,-474.5 354.5,-474.5 354.5,-438.5 261.5,-438.5"/>
<text text-anchor="middle" x="308" y="-452.8" font-family="Times,serif" font-size="14.00">Browser.ts</text>
</g>
<!-- server/index.ts&#45;&gt;server/src/Classes/Browser/Browser.ts -->
<g id="edge1" class="edge">
<title>server/index.ts&#45;&gt;server/src/Classes/Browser/Browser.ts</title>
<path fill="none" stroke="orange" d="M206.96,-758.88C174.79,-755.73 131.7,-749.15 121,-736 67.41,-670.16 62.75,-606.75 121,-545 131.46,-533.91 244.87,-544.76 258,-537 277.87,-525.26 291.05,-502.19 298.87,-483.92"/>
<polygon fill="orange" stroke="orange" points="302.12,-485.21 302.57,-474.62 295.62,-482.62 302.12,-485.21"/>
</g>
<!-- server/src/Classes/Server/App.ts -->
<g id="node3" class="node">
<title>server/src/Classes/Server/App.ts</title>
<polygon fill="none" stroke="black" points="467,-438.5 467,-474.5 529,-474.5 529,-438.5 467,-438.5"/>
<text text-anchor="middle" x="498" y="-452.8" font-family="Times,serif" font-size="14.00">App.ts</text>
</g>
<!-- server/index.ts&#45;&gt;server/src/Classes/Server/App.ts -->
<g id="edge2" class="edge">
<title>server/index.ts&#45;&gt;server/src/Classes/Server/App.ts</title>
<path fill="none" stroke="orange" d="M225.59,-744.25C184.99,-704.2 95.71,-603.89 153,-545 164.24,-533.45 428.83,-544.68 443,-537 463.98,-525.63 478.63,-502.36 487.5,-483.92"/>
<polygon fill="orange" stroke="orange" points="490.69,-485.36 491.61,-474.8 484.31,-482.48 490.69,-485.36"/>
</g>
<!-- server/src/Classes/Validation/Validation.ts -->
<g id="node4" class="node">
<title>server/src/Classes/Validation/Validation.ts</title>
<polygon fill="none" stroke="black" points="136,-197.5 136,-233.5 242,-233.5 242,-197.5 136,-197.5"/>
<text text-anchor="middle" x="189" y="-211.8" font-family="Times,serif" font-size="14.00">Validation.ts</text>
</g>
<!-- server/index.ts&#45;&gt;server/src/Classes/Validation/Validation.ts -->
<g id="edge3" class="edge">
<title>server/index.ts&#45;&gt;server/src/Classes/Validation/Validation.ts</title>
<path fill="none" stroke="orange" d="M206.7,-759.56C148.88,-756.19 42.97,-748.38 31,-736 -19.69,-683.57 17,-645.43 17,-572.5 17,-572.5 17,-572.5 17,-382.5 17,-327.43 35.54,-311.41 75,-273 90.3,-258.1 110.31,-246.4 129.28,-237.6"/>
<polygon fill="orange" stroke="orange" points="130.76,-240.77 138.48,-233.52 127.92,-234.38 130.76,-240.77"/>
</g>
<!-- server/src/Middlewares/ErrorHandlingMiddleware.ts -->
<g id="node5" class="node">
<title>server/src/Middlewares/ErrorHandlingMiddleware.ts</title>
<polygon fill="none" stroke="black" points="1034,-281.5 1034,-317.5 1258,-317.5 1258,-281.5 1034,-281.5"/>
<text text-anchor="middle" x="1146" y="-295.8" font-family="Times,serif" font-size="14.00">ErrorHandlingMiddleware.ts</text>
</g>
<!-- server/index.ts&#45;&gt;server/src/Middlewares/ErrorHandlingMiddleware.ts -->
<g id="edge4" class="edge">
<title>server/index.ts&#45;&gt;server/src/Middlewares/ErrorHandlingMiddleware.ts</title>
<path fill="none" stroke="orange" d="M281.06,-759.99C345.62,-757.09 482.83,-749.8 598,-736 914.79,-698.05 1297,-891.55 1297,-572.5 1297,-572.5 1297,-572.5 1297,-455.5 1297,-394.17 1235.59,-348.03 1191.1,-322.64"/>
<polygon fill="orange" stroke="orange" points="1192.61,-319.48 1182.17,-317.69 1189.22,-325.6 1192.61,-319.48"/>
</g>
<!-- server/src/Middlewares/FileUploadMiddleware.ts -->
<g id="node6" class="node">
<title>server/src/Middlewares/FileUploadMiddleware.ts</title>
<polygon fill="none" stroke="black" points="818.5,-281.5 818.5,-317.5 1015.5,-317.5 1015.5,-281.5 818.5,-281.5"/>
<text text-anchor="middle" x="917" y="-295.8" font-family="Times,serif" font-size="14.00">FileUploadMiddleware.ts</text>
</g>
<!-- server/index.ts&#45;&gt;server/src/Middlewares/FileUploadMiddleware.ts -->
<g id="edge5" class="edge">
<title>server/index.ts&#45;&gt;server/src/Middlewares/FileUploadMiddleware.ts</title>
<path fill="none" stroke="orange" d="M281.41,-757.07C406.3,-741.24 801,-682.53 801,-572.5 801,-572.5 801,-572.5 801,-455.5 801,-399.65 849.88,-350.99 884.18,-323.73"/>
<polygon fill="orange" stroke="orange" points="886.35,-326.48 892.12,-317.59 882.06,-320.94 886.35,-326.48"/>
</g>
<!-- server/src/Middlewares/StaticMiddleware.ts -->
<g id="node7" class="node">
<title>server/src/Middlewares/StaticMiddleware.ts</title>
<polygon fill="none" stroke="black" points="639.5,-281.5 639.5,-317.5 800.5,-317.5 800.5,-281.5 639.5,-281.5"/>
<text text-anchor="middle" x="720" y="-295.8" font-family="Times,serif" font-size="14.00">StaticMiddleware.ts</text>
</g>
<!-- server/index.ts&#45;&gt;server/src/Middlewares/StaticMiddleware.ts -->
<g id="edge6" class="edge">
<title>server/index.ts&#45;&gt;server/src/Middlewares/StaticMiddleware.ts</title>
<path fill="none" stroke="orange" d="M206.64,-760.63C162.78,-758.81 93.63,-753.22 75,-736 20.22,-685.36 37,-647.1 37,-572.5 37,-572.5 37,-572.5 37,-455.5 37,-397.09 70.95,-381.44 124,-357 148.98,-345.49 592.23,-355.32 619,-349 641.61,-343.66 665.11,-332.74 683.75,-322.62"/>
<polygon fill="orange" stroke="orange" points="685.46,-325.67 692.48,-317.74 682.05,-319.56 685.46,-325.67"/>
</g>
<!-- server/src/other/config.ts -->
<g id="node8" class="node">
<title>server/src/other/config.ts</title>
<polygon fill="none" stroke="black" points="909.5,-40.5 909.5,-76.5 986.5,-76.5 986.5,-40.5 909.5,-40.5"/>
<text text-anchor="middle" x="948" y="-54.8" font-family="Times,serif" font-size="14.00">config.ts</text>
</g>
<!-- server/index.ts&#45;&gt;server/src/other/config.ts -->
<g id="edge7" class="edge">
<title>server/index.ts&#45;&gt;server/src/other/config.ts</title>
<path fill="none" stroke="orange" d="M281.1,-761.52C407.12,-761.36 818.09,-759.04 948,-736 1110.47,-707.18 1149.32,-685.95 1301,-621 1342.77,-603.11 1391,-617.94 1391,-572.5 1391,-572.5 1391,-572.5 1391,-214.5 1391,-202.75 1392.22,-197.4 1384,-189 1278.1,-80.88 1086.39,-62.07 996.71,-59.44"/>
<polygon fill="orange" stroke="orange" points="996.63,-55.94 986.55,-59.2 996.46,-62.93 996.63,-55.94"/>
</g>
<!-- server/src/routes/router.ts -->
<g id="node9" class="node">
<title>server/src/routes/router.ts</title>
<polygon fill="none" stroke="black" points="323,-637.5 323,-673.5 401,-673.5 401,-637.5 323,-637.5"/>
<text text-anchor="middle" x="362" y="-651.8" font-family="Times,serif" font-size="14.00">router.ts</text>
</g>
<!-- server/index.ts&#45;&gt;server/src/routes/router.ts -->
<g id="edge8" class="edge">
<title>server/index.ts&#45;&gt;server/src/routes/router.ts</title>
<path fill="none" stroke="orange" d="M281.13,-754.75C294.2,-750.94 308.28,-745.05 319,-736 335.33,-722.2 346.46,-700.57 353.3,-683.35"/>
<polygon fill="orange" stroke="orange" points="356.64,-684.41 356.83,-673.82 350.08,-681.98 356.64,-684.41"/>
</g>
<!-- server/src/Classes/Error/BrowserError.ts -->
<g id="node10" class="node">
<title>server/src/Classes/Error/BrowserError.ts</title>
<polygon fill="none" stroke="black" points="451,-40.5 451,-76.5 583,-76.5 583,-40.5 451,-40.5"/>
<text text-anchor="middle" x="517" y="-54.8" font-family="Times,serif" font-size="14.00">BrowserError.ts</text>
</g>
<!-- server/src/Classes/Browser/Browser.ts&#45;&gt;server/src/Classes/Error/BrowserError.ts -->
<g id="edge9" class="edge">
<title>server/src/Classes/Browser/Browser.ts&#45;&gt;server/src/Classes/Error/BrowserError.ts</title>
<path fill="none" stroke="#15b0f3" d="M354.63,-449.38C384.19,-442.87 420.41,-429.49 440,-402 476.93,-350.17 427.77,-173.52 455,-116 461.06,-103.2 471.46,-91.98 482.02,-82.98"/>
<polygon fill="#15b0f3" stroke="#15b0f3" points="484.45,-85.52 490.07,-76.54 480.08,-80.05 484.45,-85.52"/>
</g>
<!-- server/src/Classes/Browser/BrowserUtils.ts -->
<g id="node11" class="node">
<title>server/src/Classes/Browser/BrowserUtils.ts</title>
<polygon fill="none" stroke="black" points="136.5,-365.5 136.5,-401.5 265.5,-401.5 265.5,-365.5 136.5,-365.5"/>
<text text-anchor="middle" x="201" y="-379.8" font-family="Times,serif" font-size="14.00">BrowserUtils.ts</text>
</g>
<!-- server/src/Classes/Browser/Browser.ts&#45;&gt;server/src/Classes/Browser/BrowserUtils.ts -->
<g id="edge10" class="edge">
<title>server/src/Classes/Browser/Browser.ts&#45;&gt;server/src/Classes/Browser/BrowserUtils.ts</title>
<path fill="none" stroke="#15b0f3" d="M282.37,-438.49C268.31,-429.17 250.69,-417.47 235.45,-407.36"/>
<polygon fill="#15b0f3" stroke="#15b0f3" points="237.06,-404.23 226.79,-401.61 233.19,-410.06 237.06,-404.23"/>
</g>
<!-- server/src/Classes/Browser/ScreenshotTask.ts -->
<g id="node12" class="node">
<title>server/src/Classes/Browser/ScreenshotTask.ts</title>
<polygon fill="none" stroke="black" points="283.5,-365.5 283.5,-401.5 430.5,-401.5 430.5,-365.5 283.5,-365.5"/>
<text text-anchor="middle" x="357" y="-379.8" font-family="Times,serif" font-size="14.00">ScreenshotTask.ts</text>
</g>
<!-- server/src/Classes/Browser/Browser.ts&#45;&gt;server/src/Classes/Browser/ScreenshotTask.ts -->
<g id="edge11" class="edge">
<title>server/src/Classes/Browser/Browser.ts&#45;&gt;server/src/Classes/Browser/ScreenshotTask.ts</title>
<path fill="none" stroke="#15b0f3" d="M319.86,-438.31C325.76,-429.77 333,-419.27 339.52,-409.82"/>
<polygon fill="#15b0f3" stroke="#15b0f3" points="342.45,-411.75 345.25,-401.53 336.69,-407.77 342.45,-411.75"/>
</g>
<!-- server/src/Classes/Server/Middleware.ts -->
<g id="node17" class="node">
<title>server/src/Classes/Server/Middleware.ts</title>
<polygon fill="none" stroke="black" points="487.5,-197.5 487.5,-233.5 606.5,-233.5 606.5,-197.5 487.5,-197.5"/>
<text text-anchor="middle" x="547" y="-211.8" font-family="Times,serif" font-size="14.00">Middleware.ts</text>
</g>
<!-- server/src/Classes/Server/App.ts&#45;&gt;server/src/Classes/Server/Middleware.ts -->
<g id="edge18" class="edge">
<title>server/src/Classes/Server/App.ts&#45;&gt;server/src/Classes/Server/Middleware.ts</title>
<path fill="none" stroke="#6bb45c" d="M494.17,-438.45C487.53,-405.31 476.56,-330.44 498,-273 502.47,-261.03 510.75,-249.91 519.24,-240.75"/>
<polygon fill="#6bb45c" stroke="#6bb45c" points="521.82,-243.13 526.35,-233.55 516.83,-238.21 521.82,-243.13"/>
</g>
<!-- server/src/Classes/Server/Router.ts -->
<g id="node18" class="node">
<title>server/src/Classes/Server/Router.ts</title>
<polygon fill="none" stroke="black" points="516,-365.5 516,-401.5 598,-401.5 598,-365.5 516,-365.5"/>
<text text-anchor="middle" x="557" y="-379.8" font-family="Times,serif" font-size="14.00">Router.ts</text>
</g>
<!-- server/src/Classes/Server/App.ts&#45;&gt;server/src/Classes/Server/Router.ts -->
<g id="edge19" class="edge">
<title>server/src/Classes/Server/App.ts&#45;&gt;server/src/Classes/Server/Router.ts</title>
<path fill="none" stroke="#6bb45c" d="M512.28,-438.31C519.53,-429.59 528.46,-418.84 536.44,-409.25"/>
<polygon fill="#6bb45c" stroke="#6bb45c" points="539.15,-411.46 542.85,-401.53 533.77,-406.98 539.15,-411.46"/>
</g>
<!-- server/src/Classes/Validation/Validator.ts -->
<g id="node22" class="node">
<title>server/src/Classes/Validation/Validator.ts</title>
<polygon fill="none" stroke="black" points="142,-124.5 142,-160.5 240,-160.5 240,-124.5 142,-124.5"/>
<text text-anchor="middle" x="191" y="-138.8" font-family="Times,serif" font-size="14.00">Validator.ts</text>
</g>
<!-- server/src/Classes/Validation/Validation.ts&#45;&gt;server/src/Classes/Validation/Validator.ts -->
<g id="edge25" class="edge">
<title>server/src/Classes/Validation/Validation.ts&#45;&gt;server/src/Classes/Validation/Validator.ts</title>
<path fill="none" stroke="#bc3b45" d="M189.48,-197.31C189.71,-189.29 189.98,-179.55 190.24,-170.57"/>
<polygon fill="#bc3b45" stroke="#bc3b45" points="193.74,-170.62 190.52,-160.53 186.74,-170.43 193.74,-170.62"/>
</g>
<!-- server/src/Middlewares/ErrorHandlingMiddleware.ts&#45;&gt;server/src/Classes/Validation/Validation.ts -->
<g id="edge31" class="edge">
<title>server/src/Middlewares/ErrorHandlingMiddleware.ts&#45;&gt;server/src/Classes/Validation/Validation.ts</title>
<path fill="none" stroke="#51a61f" d="M1076.63,-281.44C1059.84,-277.99 1041.86,-274.85 1025,-273 984.52,-268.56 331.69,-274.11 292,-265 268.82,-259.68 244.68,-248.65 225.6,-238.45"/>
<polygon fill="#51a61f" stroke="#51a61f" points="227.12,-235.29 216.67,-233.54 223.74,-241.42 227.12,-235.29"/>
</g>
<!-- server/src/Middlewares/ErrorHandlingMiddleware.ts&#45;&gt;server/src/Classes/Error/BrowserError.ts -->
<g id="edge28" class="edge">
<title>server/src/Middlewares/ErrorHandlingMiddleware.ts&#45;&gt;server/src/Classes/Error/BrowserError.ts</title>
<path fill="none" stroke="#51a61f" d="M1116.92,-281.47C1040.38,-236.68 838.69,-118.82 831,-116 752.76,-87.3 658.03,-72.82 593.22,-65.76"/>
<polygon fill="#51a61f" stroke="#51a61f" points="593.39,-62.26 583.08,-64.69 592.66,-69.22 593.39,-62.26"/>
</g>
<!-- server/src/Classes/Error/ApiError.ts -->
<g id="node16" class="node">
<title>server/src/Classes/Error/ApiError.ts</title>
<polygon fill="none" stroke="black" points="337.5,-40.5 337.5,-76.5 432.5,-76.5 432.5,-40.5 337.5,-40.5"/>
<text text-anchor="middle" x="385" y="-54.8" font-family="Times,serif" font-size="14.00">ApiError.ts</text>
</g>
<!-- server/src/Middlewares/ErrorHandlingMiddleware.ts&#45;&gt;server/src/Classes/Error/ApiError.ts -->
<g id="edge27" class="edge">
<title>server/src/Middlewares/ErrorHandlingMiddleware.ts&#45;&gt;server/src/Classes/Error/ApiError.ts</title>
<path fill="none" stroke="#51a61f" d="M1070.69,-281.47C1055.61,-278.38 1039.84,-275.39 1025,-273 993.65,-267.94 984.2,-274.8 954,-265 826.22,-223.53 820.34,-152.32 691,-116 637.7,-101.03 493.64,-127.95 442,-108 428.8,-102.9 416.52,-93.37 406.76,-84.09"/>
<polygon fill="#51a61f" stroke="#51a61f" points="409.04,-81.42 399.51,-76.8 404.08,-86.35 409.04,-81.42"/>
</g>
<!-- server/src/Middlewares/ErrorHandlingMiddleware.ts&#45;&gt;server/src/Classes/Server/Middleware.ts -->
<g id="edge30" class="edge">
<title>server/src/Middlewares/ErrorHandlingMiddleware.ts&#45;&gt;server/src/Classes/Server/Middleware.ts</title>
<path fill="none" stroke="#51a61f" d="M1075.98,-281.46C1059.36,-278.05 1041.63,-274.93 1025,-273 949.04,-264.19 756.16,-279.09 681,-265 650.92,-259.36 618.62,-247.85 593.27,-237.46"/>
<polygon fill="#51a61f" stroke="#51a61f" points="594.5,-234.17 583.92,-233.54 591.79,-240.63 594.5,-234.17"/>
</g>
<!-- server/src/Classes/Error/ValidationError.ts -->
<g id="node23" class="node">
<title>server/src/Classes/Error/ValidationError.ts</title>
<polygon fill="none" stroke="black" points="176.5,-40.5 176.5,-76.5 319.5,-76.5 319.5,-40.5 176.5,-40.5"/>
<text text-anchor="middle" x="248" y="-54.8" font-family="Times,serif" font-size="14.00">ValidationError.ts</text>
</g>
<!-- server/src/Middlewares/ErrorHandlingMiddleware.ts&#45;&gt;server/src/Classes/Error/ValidationError.ts -->
<g id="edge29" class="edge">
<title>server/src/Middlewares/ErrorHandlingMiddleware.ts&#45;&gt;server/src/Classes/Error/ValidationError.ts</title>
<path fill="none" stroke="#51a61f" d="M1075,-281.45C1058.66,-278.11 1041.3,-275.02 1025,-273 979.98,-267.41 863.81,-280.02 821,-265 768.36,-246.54 671.74,-134.16 619,-116 558.04,-95.01 390.89,-126.04 329,-108 310.89,-102.72 292.69,-92.38 278.14,-82.6"/>
<polygon fill="#51a61f" stroke="#51a61f" points="279.79,-79.49 269.59,-76.64 275.78,-85.23 279.79,-79.49"/>
</g>
<!-- server/src/Middlewares/FileUploadMiddleware.ts&#45;&gt;server/src/Classes/Server/Middleware.ts -->
<g id="edge32" class="edge">
<title>server/src/Middlewares/FileUploadMiddleware.ts&#45;&gt;server/src/Classes/Server/Middleware.ts</title>
<path fill="none" stroke="#51cd45" d="M853.41,-281.45C839.22,-278.17 824.17,-275.11 810,-273 753.18,-264.53 737.25,-276.67 681,-265 651.46,-258.87 619.67,-247.58 594.46,-237.43"/>
<polygon fill="#51cd45" stroke="#51cd45" points="595.72,-234.17 585.14,-233.61 593.07,-240.64 595.72,-234.17"/>
</g>
<!-- server/src/Middlewares/StaticMiddleware.ts&#45;&gt;server/src/Classes/Server/Middleware.ts -->
<g id="edge33" class="edge">
<title>server/src/Middlewares/StaticMiddleware.ts&#45;&gt;server/src/Classes/Server/Middleware.ts</title>
<path fill="none" stroke="#4e7761" d="M683.73,-281.31C657.12,-268.69 620.79,-251.48 592.27,-237.96"/>
<polygon fill="#4e7761" stroke="#4e7761" points="593.46,-234.65 582.92,-233.53 590.46,-240.97 593.46,-234.65"/>
</g>
<!-- server/src/routes/router.ts&#45;&gt;server/src/Classes/Browser/Browser.ts -->
<g id="edge35" class="edge">
<title>server/src/routes/router.ts&#45;&gt;server/src/Classes/Browser/Browser.ts</title>
<path fill="none" stroke="#d98d1a" d="M363.13,-637.43C364.07,-615.55 364.06,-576.69 355,-545 348.68,-522.9 336.2,-500.09 325.69,-483.3"/>
<polygon fill="#d98d1a" stroke="#d98d1a" points="328.46,-481.14 320.1,-474.63 322.58,-484.93 328.46,-481.14"/>
</g>
<!-- server/src/routes/router.ts&#45;&gt;server/src/Classes/Validation/Validation.ts -->
<g id="edge38" class="edge">
<title>server/src/routes/router.ts&#45;&gt;server/src/Classes/Validation/Validation.ts</title>
<path fill="none" stroke="#d98d1a" d="M337.95,-637.48C332.01,-634.07 325.48,-630.95 319,-629 301.31,-623.69 166.75,-633.33 153,-621 127.54,-598.17 165.67,-568.68 141,-545 118.73,-523.62 92.53,-560.05 72,-537 36.36,-496.98 89.49,-291.79 102,-273 111.42,-258.85 125.73,-247.45 140.03,-238.7"/>
<polygon fill="#d98d1a" stroke="#d98d1a" points="141.98,-241.62 148.89,-233.59 138.48,-235.55 141.98,-241.62"/>
</g>
<!-- server/src/routes/router.ts&#45;&gt;server/src/Classes/Server/Router.ts -->
<g id="edge37" class="edge">
<title>server/src/routes/router.ts&#45;&gt;server/src/Classes/Server/Router.ts</title>
<path fill="none" stroke="#d98d1a" d="M389.43,-637.43C394.53,-634.49 399.87,-631.56 405,-629 501.32,-580.98 569.07,-626.4 629,-537 653.5,-500.45 648.77,-477.31 629,-438 622.81,-425.69 612.3,-415.5 601.2,-407.44"/>
<polygon fill="#d98d1a" stroke="#d98d1a" points="602.91,-404.37 592.66,-401.68 599,-410.17 602.91,-404.37"/>
</g>
<!-- server/src/Classes/Server/Endpoint.ts -->
<g id="node20" class="node">
<title>server/src/Classes/Server/Endpoint.ts</title>
<polygon fill="none" stroke="black" points="507,-281.5 507,-317.5 607,-317.5 607,-281.5 507,-281.5"/>
<text text-anchor="middle" x="557" y="-295.8" font-family="Times,serif" font-size="14.00">Endpoint.ts</text>
</g>
<!-- server/src/routes/router.ts&#45;&gt;server/src/Classes/Server/Endpoint.ts -->
<g id="edge36" class="edge">
<title>server/src/routes/router.ts&#45;&gt;server/src/Classes/Server/Endpoint.ts</title>
<path fill="none" stroke="#d98d1a" d="M386.53,-637.3C392.35,-633.99 398.7,-630.95 405,-629 457.33,-612.8 476.54,-639.78 528,-621 587.12,-599.42 613.62,-593.17 642,-537 678.76,-464.26 650.71,-425.78 607,-357 599.86,-345.77 590.52,-334.56 581.84,-325.12"/>
<polygon fill="#d98d1a" stroke="#d98d1a" points="584.19,-322.51 574.78,-317.64 579.1,-327.31 584.19,-322.51"/>
</g>
<!-- server/types/enums.ts -->
<g id="node21" class="node">
<title>server/types/enums.ts</title>
<polygon fill="none" stroke="black" points="1290,-197.5 1290,-233.5 1372,-233.5 1372,-197.5 1290,-197.5"/>
<text text-anchor="middle" x="1331" y="-211.8" font-family="Times,serif" font-size="14.00">enums.ts</text>
</g>
<!-- server/src/routes/router.ts&#45;&gt;server/types/enums.ts -->
<g id="edge34" class="edge">
<title>server/src/routes/router.ts&#45;&gt;server/types/enums.ts</title>
<path fill="none" stroke="#d98d1a" d="M386.05,-637.46C391.99,-634.06 398.51,-630.93 405,-629 443.8,-617.44 546.9,-626.58 587,-621 743.07,-599.28 1277,-615.08 1277,-457.5 1277,-457.5 1277,-457.5 1277,-382.5 1277,-333.78 1263.93,-318.24 1282,-273 1286.74,-261.13 1295.08,-250.04 1303.55,-240.87"/>
<polygon fill="#d98d1a" stroke="#d98d1a" points="1306.12,-243.25 1310.62,-233.66 1301.12,-238.35 1306.12,-243.25"/>
</g>
<!-- server/src/controllers/Html2imgController.ts -->
<g id="node24" class="node">
<title>server/src/controllers/Html2imgController.ts</title>
<polygon fill="none" stroke="black" points="165,-553.5 165,-589.5 343,-589.5 343,-553.5 165,-553.5"/>
<text text-anchor="middle" x="254" y="-567.8" font-family="Times,serif" font-size="14.00">Html2imgController.ts</text>
</g>
<!-- server/src/routes/router.ts&#45;&gt;server/src/controllers/Html2imgController.ts -->
<g id="edge39" class="edge">
<title>server/src/routes/router.ts&#45;&gt;server/src/controllers/Html2imgController.ts</title>
<path fill="none" stroke="#d98d1a" d="M339.36,-637.31C323.52,-625.28 302.17,-609.07 284.78,-595.87"/>
<polygon fill="#d98d1a" stroke="#d98d1a" points="286.69,-592.93 276.61,-589.67 282.46,-598.5 286.69,-592.93"/>
</g>
<!-- server/src/Classes/Image/ImageList.ts -->
<g id="node13" class="node">
<title>server/src/Classes/Image/ImageList.ts</title>
<polygon fill="none" stroke="black" points="304,-281.5 304,-317.5 410,-317.5 410,-281.5 304,-281.5"/>
<text text-anchor="middle" x="357" y="-295.8" font-family="Times,serif" font-size="14.00">ImageList.ts</text>
</g>
<!-- server/src/Classes/Browser/BrowserUtils.ts&#45;&gt;server/src/Classes/Image/ImageList.ts -->
<g id="edge12" class="edge">
<title>server/src/Classes/Browser/BrowserUtils.ts&#45;&gt;server/src/Classes/Image/ImageList.ts</title>
<path fill="none" stroke="#7667ea" d="M233.7,-365.31C257.49,-352.8 289.89,-335.77 315.51,-322.31"/>
<polygon fill="#7667ea" stroke="#7667ea" points="317.38,-325.28 324.61,-317.53 314.13,-319.08 317.38,-325.28"/>
</g>
<!-- server/src/Classes/Browser/ScreenshotTask.ts&#45;&gt;server/src/Classes/Image/ImageList.ts -->
<g id="edge17" class="edge">
<title>server/src/Classes/Browser/ScreenshotTask.ts&#45;&gt;server/src/Classes/Image/ImageList.ts</title>
<path fill="none" stroke="#bbc2de" d="M357,-365.11C357,-354.27 357,-340.1 357,-327.79"/>
<polygon fill="#bbc2de" stroke="#bbc2de" points="360.5,-327.58 357,-317.58 353.5,-327.58 360.5,-327.58"/>
</g>
<!-- server/src/Classes/Image/Image.ts -->
<g id="node14" class="node">
<title>server/src/Classes/Image/Image.ts</title>
<polygon fill="none" stroke="black" points="319.5,-197.5 319.5,-233.5 398.5,-233.5 398.5,-197.5 319.5,-197.5"/>
<text text-anchor="middle" x="359" y="-211.8" font-family="Times,serif" font-size="14.00">Image.ts</text>
</g>
<!-- server/src/Classes/Image/ImageList.ts&#45;&gt;server/src/Classes/Image/Image.ts -->
<g id="edge13" class="edge">
<title>server/src/Classes/Image/ImageList.ts&#45;&gt;server/src/Classes/Image/Image.ts</title>
<path fill="none" stroke="#45ad86" d="M357.42,-281.11C357.69,-270.27 358.03,-256.1 358.33,-243.79"/>
<polygon fill="#45ad86" stroke="#45ad86" points="361.84,-243.67 358.58,-233.58 354.84,-243.5 361.84,-243.67"/>
</g>
<!-- server/src/Classes/Image/ImageUtils.ts -->
<g id="node15" class="node">
<title>server/src/Classes/Image/ImageUtils.ts</title>
<polygon fill="none" stroke="black" points="304.5,-124.5 304.5,-160.5 417.5,-160.5 417.5,-124.5 304.5,-124.5"/>
<text text-anchor="middle" x="361" y="-138.8" font-family="Times,serif" font-size="14.00">ImageUtils.ts</text>
</g>
<!-- server/src/Classes/Image/Image.ts&#45;&gt;server/src/Classes/Image/ImageUtils.ts -->
<g id="edge14" class="edge">
<title>server/src/Classes/Image/Image.ts&#45;&gt;server/src/Classes/Image/ImageUtils.ts</title>
<path fill="none" stroke="#3adeed" d="M359.48,-197.31C359.71,-189.29 359.98,-179.55 360.24,-170.57"/>
<polygon fill="#3adeed" stroke="#3adeed" points="363.74,-170.62 360.52,-160.53 356.74,-170.43 363.74,-170.62"/>
</g>
<!-- server/src/Classes/Image/ImageUtils.ts&#45;&gt;server/src/other/config.ts -->
<g id="edge15" class="edge">
<title>server/src/Classes/Image/ImageUtils.ts&#45;&gt;server/src/other/config.ts</title>
<path fill="none" stroke="#88ab58" d="M416.25,-124.46C428.88,-121.14 442.32,-118.06 455,-116 516.52,-106.01 532.97,-114.02 595,-108 704.22,-97.39 831.58,-78.2 899.49,-67.41"/>
<polygon fill="#88ab58" stroke="#88ab58" points="900.14,-70.85 909.46,-65.82 899.04,-63.94 900.14,-70.85"/>
</g>
<!-- server/src/Classes/Image/ImageUtils.ts&#45;&gt;server/src/Classes/Error/ApiError.ts -->
<g id="edge16" class="edge">
<title>server/src/Classes/Image/ImageUtils.ts&#45;&gt;server/src/Classes/Error/ApiError.ts</title>
<path fill="none" stroke="#88ab58" d="M366.09,-124.11C369.29,-113.16 373.49,-98.81 377.12,-86.42"/>
<polygon fill="#88ab58" stroke="#88ab58" points="380.55,-87.16 380,-76.58 373.83,-85.2 380.55,-87.16"/>
</g>
<!-- server/src/Classes/Server/Controller.ts -->
<g id="node19" class="node">
<title>server/src/Classes/Server/Controller.ts</title>
<polygon fill="none" stroke="black" points="467,-124.5 467,-160.5 573,-160.5 573,-124.5 467,-124.5"/>
<text text-anchor="middle" x="520" y="-138.8" font-family="Times,serif" font-size="14.00">Controller.ts</text>
</g>
<!-- server/src/Classes/Server/Middleware.ts&#45;&gt;server/src/Classes/Server/Controller.ts -->
<g id="edge20" class="edge">
<title>server/src/Classes/Server/Middleware.ts&#45;&gt;server/src/Classes/Server/Controller.ts</title>
<path fill="none" stroke="#44902e" d="M540.46,-197.31C537.35,-189.12 533.55,-179.12 530.07,-169.98"/>
<polygon fill="#44902e" stroke="#44902e" points="533.3,-168.63 526.48,-160.53 526.76,-171.12 533.3,-168.63"/>
</g>
<!-- server/src/Classes/Server/Router.ts&#45;&gt;server/src/Classes/Server/Endpoint.ts -->
<g id="edge21" class="edge">
<title>server/src/Classes/Server/Router.ts&#45;&gt;server/src/Classes/Server/Endpoint.ts</title>
<path fill="none" stroke="#a31b98" d="M557,-365.11C557,-354.27 557,-340.1 557,-327.79"/>
<polygon fill="#a31b98" stroke="#a31b98" points="560.5,-327.58 557,-317.58 553.5,-327.58 560.5,-327.58"/>
</g>
<!-- server/src/Classes/Server/Endpoint.ts&#45;&gt;server/src/Classes/Server/Middleware.ts -->
<g id="edge24" class="edge">
<title>server/src/Classes/Server/Endpoint.ts&#45;&gt;server/src/Classes/Server/Middleware.ts</title>
<path fill="none" stroke="#8af744" d="M554.88,-281.11C553.56,-270.27 551.83,-256.1 550.33,-243.79"/>
<polygon fill="#8af744" stroke="#8af744" points="553.77,-243.09 549.08,-233.58 546.82,-243.93 553.77,-243.09"/>
</g>
<!-- server/src/Classes/Server/Endpoint.ts&#45;&gt;server/src/Classes/Server/Controller.ts -->
<g id="edge23" class="edge">
<title>server/src/Classes/Server/Endpoint.ts&#45;&gt;server/src/Classes/Server/Controller.ts</title>
<path fill="none" stroke="#8af744" d="M506.69,-286.91C495.79,-281.98 485.57,-274.97 479,-265 460.42,-236.79 466.89,-220.53 479,-189 481.9,-181.46 486.68,-174.39 491.98,-168.18"/>
<polygon fill="#8af744" stroke="#8af744" points="494.61,-170.49 498.86,-160.79 489.49,-165.72 494.61,-170.49"/>
</g>
<!-- server/src/Classes/Server/Endpoint.ts&#45;&gt;server/types/enums.ts -->
<g id="edge22" class="edge">
<title>server/src/Classes/Server/Endpoint.ts&#45;&gt;server/types/enums.ts</title>
<path fill="none" stroke="#8af744" d="M598.28,-281.38C607.59,-278.11 617.52,-275.07 627,-273 867.14,-220.63 1162.84,-215.63 1279.86,-215.93"/>
<polygon fill="#8af744" stroke="#8af744" points="1279.95,-219.43 1289.96,-215.97 1279.98,-212.43 1279.95,-219.43"/>
</g>
<!-- server/src/Classes/Validation/Validator.ts&#45;&gt;server/src/Classes/Error/ValidationError.ts -->
<g id="edge26" class="edge">
<title>server/src/Classes/Validation/Validator.ts&#45;&gt;server/src/Classes/Error/ValidationError.ts</title>
<path fill="none" stroke="#055446" d="M203.09,-124.11C211,-112.73 221.47,-97.66 230.32,-84.94"/>
<polygon fill="#055446" stroke="#055446" points="233.29,-86.79 236.12,-76.58 227.54,-82.8 233.29,-86.79"/>
</g>
<!-- server/src/controllers/Html2imgController.ts&#45;&gt;server/src/Classes/Browser/Browser.ts -->
<g id="edge40" class="edge">
<title>server/src/controllers/Html2imgController.ts&#45;&gt;server/src/Classes/Browser/Browser.ts</title>
<path fill="none" stroke="#eebbd5" d="M262.2,-553.34C271,-534.92 285.1,-505.43 295.33,-484.02"/>
<polygon fill="#eebbd5" stroke="#eebbd5" points="298.57,-485.36 299.72,-474.82 292.25,-482.34 298.57,-485.36"/>
</g>
<!-- server/src/controllers/Html2imgController.ts&#45;&gt;server/src/Classes/Validation/Validation.ts -->
<g id="edge44" class="edge">
<title>server/src/controllers/Html2imgController.ts&#45;&gt;server/src/Classes/Validation/Validation.ts</title>
<path fill="none" stroke="#eebbd5" d="M188.52,-553.45C176.1,-550.45 163.18,-547.5 151,-545 140.19,-542.78 109.15,-545.41 102,-537 76.09,-506.52 92.78,-395.4 104,-357 116.92,-312.8 147.37,-268.45 168.09,-241.73"/>
<polygon fill="#eebbd5" stroke="#eebbd5" points="170.99,-243.71 174.44,-233.69 165.49,-239.37 170.99,-243.71"/>
</g>
<!-- server/src/controllers/Html2imgController.ts&#45;&gt;server/src/Classes/Browser/ScreenshotTask.ts -->
<g id="edge41" class="edge">
<title>server/src/controllers/Html2imgController.ts&#45;&gt;server/src/Classes/Browser/ScreenshotTask.ts</title>
<path fill="none" stroke="#eebbd5" d="M343.28,-568.48C445.34,-565.22 600.74,-557.01 619,-537 633.83,-520.75 632.91,-455.04 619,-438 616.09,-434.43 516.19,-414.75 440.62,-400.28"/>
<polygon fill="#eebbd5" stroke="#eebbd5" points="441.07,-396.81 430.59,-398.37 439.76,-403.68 441.07,-396.81"/>
</g>
<!-- server/src/controllers/Html2imgController.ts&#45;&gt;server/src/Classes/Image/ImageList.ts -->
<g id="edge42" class="edge">
<title>server/src/controllers/Html2imgController.ts&#45;&gt;server/src/Classes/Image/ImageList.ts</title>
<path fill="none" stroke="#eebbd5" d="M184.2,-553.45C153.94,-545.89 125.08,-538.39 124,-537 99.5,-505.38 99.27,-388.44 124,-357 144.78,-330.58 232.08,-315.01 293.7,-307.11"/>
<polygon fill="#eebbd5" stroke="#eebbd5" points="294.24,-310.57 303.73,-305.86 293.38,-303.62 294.24,-310.57"/>
</g>
<!-- server/src/controllers/Html2imgController.ts&#45;&gt;server/src/Classes/Server/Controller.ts -->
<g id="edge43" class="edge">
<title>server/src/controllers/Html2imgController.ts&#45;&gt;server/src/Classes/Server/Controller.ts</title>
<path fill="none" stroke="#eebbd5" d="M191.16,-553.45C178.27,-550.33 164.75,-547.33 152,-545 137.03,-542.26 94.37,-548.14 84,-537 60.88,-512.17 77,-418.42 77,-384.5 77,-384.5 77,-384.5 77,-298.5 77,-245.54 81.15,-220.13 124,-189 179.24,-148.86 362.4,-170.64 430,-161 438.7,-159.76 447.84,-158.24 456.81,-156.62"/>
<polygon fill="#eebbd5" stroke="#eebbd5" points="457.66,-160.02 466.85,-154.76 456.38,-153.14 457.66,-160.02"/>
</g>
</g>
</svg>
